<svg xmlns="http://www.w3.org/2000/svg" xmlns:xlink="http://www.w3.org/1999/xlink" width="400" zoomAndPan="magnify" viewBox="0 0 300 112.499997" height="150" preserveAspectRatio="xMidYMid meet" version="1.2"><g id="dc16678891"><path style=" stroke:none;fill-rule:nonzero;fill:#293371;fill-opacity:1;" d="M 210.480469 44.800781 C 211.863281 44.746094 213.25 44.738281 214.636719 44.753906 L 216.925781 44.773438 L 218.695312 44.800781 L 219.441406 47.039062 L 221.167969 45.921875 C 224.882812 44.410156 228.171875 44.339844 232.136719 44.800781 C 234.375 45.828125 234.375 45.828125 235.867188 47.039062 L 238.109375 48.535156 L 239.101562 47.71875 C 241.453125 45.996094 243.382812 44.914062 246.289062 44.449219 C 249.777344 44.347656 252.914062 44.425781 256.074219 46.015625 C 258.269531 47.789062 258.269531 47.789062 259.667969 49.980469 C 260.964844 53.511719 261.351562 56.667969 261.355469 60.421875 L 261.359375 62.929688 L 261.347656 65.519531 L 261.359375 68.148438 L 261.355469 70.644531 L 261.351562 72.929688 L 261.253906 74.667969 L 260.507812 75.414062 C 259.125 75.46875 257.738281 75.476562 256.355469 75.460938 L 254.066406 75.441406 L 252.296875 75.414062 L 252.261719 73.761719 C 252.207031 71.277344 252.136719 68.796875 252.0625 66.3125 L 252.011719 63.710938 L 251.929688 61.195312 L 251.871094 58.886719 C 251.503906 56.445312 250.761719 54.996094 249.308594 53.015625 C 247.285156 52.394531 245.402344 52.617188 243.335938 53.015625 C 241.824219 53.839844 241.824219 53.839844 241.09375 55.253906 C 240.371094 57.605469 240.207031 59.835938 240.113281 62.289062 L 240.019531 64.609375 L 239.929688 67.015625 L 239.832031 69.457031 C 239.753906 71.441406 239.675781 73.429688 239.601562 75.414062 L 231.386719 75.414062 L 231.277344 71.625 L 231.109375 66.6875 C 231.085938 65.863281 231.0625 65.042969 231.039062 64.191406 L 230.949219 61.777344 L 230.878906 59.5625 C 230.628906 57.390625 230.078125 55.734375 229.148438 53.761719 L 228.402344 53.015625 C 226.316406 52.878906 224.484375 52.777344 222.429688 53.015625 C 220.929688 53.886719 220.929688 53.886719 220.1875 55.253906 C 219.429688 57.53125 219.292969 59.246094 219.207031 61.632812 L 219.109375 64.0625 L 219.019531 66.59375 L 218.925781 69.152344 C 218.84375 71.242188 218.769531 73.328125 218.695312 75.414062 C 217.339844 75.433594 215.988281 75.449219 214.636719 75.460938 L 212.351562 75.488281 L 210.480469 75.414062 L 209.734375 74.667969 C 209.660156 72.523438 209.628906 70.398438 209.636719 68.25 L 209.632812 66.300781 C 209.632812 64.9375 209.632812 63.574219 209.636719 62.210938 C 209.640625 60.117188 209.636719 58.023438 209.632812 55.929688 C 209.632812 54.605469 209.632812 53.285156 209.636719 51.964844 L 209.628906 50.054688 C 209.636719 48.550781 209.679688 47.050781 209.734375 45.546875 Z M 210.480469 44.800781 "/><path style=" stroke:none;fill-rule:nonzero;fill:#f27c22;fill-opacity:1;" d="M 85.039062 22.402344 C 87.027344 22.253906 89.019531 22.191406 91.011719 22.214844 L 92.679688 22.195312 C 94.117188 22.203125 95.554688 22.296875 96.984375 22.402344 L 98.480469 23.894531 C 98.789062 25.835938 98.789062 25.835938 98.945312 28.09375 L 99.113281 30.363281 L 99.226562 32.105469 L 100.71875 25.386719 C 104.007812 26.453125 106.597656 28.074219 108.933594 30.613281 C 111.480469 34.34375 113.207031 38.152344 114.160156 42.5625 L 114.160156 45.546875 L 67.863281 45.546875 C 69.570312 36.171875 69.570312 36.171875 72.503906 32.167969 C 74.679688 29.628906 77.015625 27.242188 79.8125 25.386719 L 82.050781 25.386719 L 83.546875 36.585938 L 83.492188 33.863281 C 83.480469 32.6875 83.464844 31.511719 83.453125 30.332031 L 83.414062 28.539062 C 83.402344 26.988281 83.46875 25.441406 83.546875 23.894531 Z M 85.039062 22.402344 "/><path style=" stroke:none;fill-rule:nonzero;fill:#293371;fill-opacity:1;" d="M 5.144531 35.839844 C 8.089844 35.765625 11.039062 35.710938 13.984375 35.675781 C 15.472656 35.652344 16.957031 35.617188 18.445312 35.578125 C 23.699219 35.527344 27.976562 35.828125 32.808594 37.972656 C 35.265625 39.417969 36.453125 40.894531 37.996094 43.308594 C 39.410156 46.132812 39.582031 48.421875 39.398438 51.519531 C 39.070312 54.054688 38.640625 55.453125 37.4375 57.773438 C 35.070312 60.539062 33.167969 62.316406 29.703125 63.542969 C 26.414062 64.300781 23.476562 64.382812 20.125 64.308594 L 18.359375 64.289062 C 16.941406 64.269531 15.523438 64.242188 14.105469 64.214844 L 14.105469 75.414062 C 7.761719 75.488281 7.761719 75.488281 5.890625 75.414062 L 5.144531 74.667969 C 5.078125 73.453125 5.050781 72.234375 5.058594 71.019531 L 5.058594 68.664062 L 5.070312 66.101562 L 5.074219 63.492188 C 5.078125 60.730469 5.085938 57.96875 5.097656 55.207031 C 5.101562 53.339844 5.105469 51.472656 5.105469 49.605469 C 5.117188 45.019531 5.128906 40.429688 5.144531 35.839844 M 14.105469 43.308594 L 14.105469 56.746094 L 19.472656 56.886719 L 21.140625 56.949219 C 23.597656 56.980469 25.257812 56.769531 27.488281 55.710938 C 29.109375 54.628906 29.109375 54.628906 29.785156 53.015625 C 29.957031 50.875 30.089844 49.132812 29.785156 47.039062 C 28.539062 45.171875 28.539062 45.171875 26.796875 44.054688 C 22.746094 42.703125 18.335938 43.269531 14.105469 43.308594 M 169.414062 44.800781 C 172.253906 45.589844 174.332031 46.851562 176.523438 48.800781 C 178.273438 50.683594 179.199219 52.480469 180.101562 54.882812 C 180.585938 57.34375 180.792969 59.476562 180.613281 61.972656 L 179.867188 62.722656 C 178.265625 62.839844 176.660156 62.910156 175.058594 62.957031 L 172.105469 63.050781 L 168.992188 63.140625 L 165.875 63.238281 C 163.320312 63.316406 160.765625 63.394531 158.214844 63.46875 C 159.183594 64.734375 160.175781 65.980469 161.199219 67.203125 C 163.417969 68.066406 165.554688 68.097656 167.921875 67.949219 C 170.0625 67.386719 171.867188 66.628906 173.894531 65.707031 L 178.375 70.933594 C 175.964844 73 173.921875 74.425781 170.90625 75.414062 C 166.351562 75.921875 161.820312 75.949219 157.515625 74.25 C 154.246094 72.546875 151.984375 70.285156 150 67.203125 C 148.488281 63.902344 148.195312 61.105469 148.507812 57.496094 C 149.300781 54.242188 150.363281 51.964844 152.566406 49.421875 C 158.042969 44.746094 162.226562 44.195312 169.414062 44.800781 M 160.96875 51.707031 C 158.804688 52.925781 158.804688 52.925781 157.46875 55.253906 L 157.46875 57.496094 L 171.652344 57.496094 C 171.199219 54.042969 171.199219 54.042969 170.066406 52.453125 C 168.582031 51.355469 168.582031 51.355469 166.195312 50.867188 C 163.429688 50.597656 163.429688 50.597656 160.96875 51.707031 M 280.949219 44.613281 L 283.859375 44.554688 C 286.832031 44.816406 288.582031 45.519531 291.121094 47.039062 C 293.089844 48.625 293.984375 49.714844 294.925781 52.066406 C 295.632812 54.609375 295.785156 56.699219 295.773438 59.328125 L 295.769531 62.03125 L 295.742188 64.820312 L 295.742188 67.65625 C 295.714844 72.710938 295.714844 72.710938 295.601562 74.667969 L 294.855469 75.414062 C 293.597656 75.464844 292.335938 75.480469 291.078125 75.460938 L 288.996094 75.441406 L 287.390625 75.414062 L 286.644531 72.429688 L 285.664062 73.5 C 284.402344 74.667969 284.402344 74.667969 282.164062 75.414062 C 279 75.757812 275.972656 75.839844 272.929688 74.824219 C 271.425781 74.105469 270.066406 73.414062 268.722656 72.429688 C 267.230469 70.1875 267.230469 70.1875 266.953125 68.46875 C 266.902344 66.492188 266.921875 64.671875 267.230469 62.722656 C 268.847656 60.503906 270.15625 59.40625 272.570312 58.152344 C 275.363281 57.289062 278.015625 57.332031 280.902344 57.402344 L 282.578125 57.421875 C 283.933594 57.4375 285.289062 57.464844 286.644531 57.496094 C 285.933594 55.980469 285.1875 54.488281 284.402344 53.015625 C 282.265625 51.945312 280.34375 52.121094 277.980469 52.140625 C 275.46875 52.320312 273.339844 52.953125 270.960938 53.761719 C 269.9375 52.285156 268.941406 50.792969 267.976562 49.28125 L 267.976562 47.789062 C 272.585938 45.378906 275.730469 44.675781 280.949219 44.613281 M 276.9375 62.722656 L 275.441406 64.214844 C 275.132812 66.082031 275.132812 66.082031 275.441406 67.949219 C 277.589844 69.625 277.589844 69.625 280.203125 69.722656 C 282.933594 69.625 282.933594 69.625 285.101562 68.183594 L 286.644531 66.453125 C 286.769531 64.515625 286.769531 64.515625 286.644531 62.722656 C 285.054688 62.679688 283.46875 62.652344 281.882812 62.628906 L 279.203125 62.574219 Z M 67.117188 53.761719 L 80.558594 53.761719 L 81.773438 56.933594 C 82.867188 59.367188 83.601562 60.535156 85.597656 62.394531 C 88.121094 63.511719 89.8125 63.90625 92.539062 63.757812 C 95.03125 63.265625 96.578125 62.117188 98.480469 60.480469 C 100.167969 58.152344 100.757812 56.59375 101.464844 53.761719 L 114.90625 53.761719 L 115.652344 56.746094 L 114.160156 58.242188 C 112.425781 58.539062 110.683594 58.792969 108.933594 58.988281 C 108.871094 60.730469 108.871094 62.472656 108.933594 64.214844 L 110.425781 66.453125 C 110.378906 67.855469 110.378906 67.855469 109.679688 69.441406 C 107.953125 71.542969 107.953125 71.542969 105.945312 73.175781 C 104.074219 73.117188 103.121094 72.519531 101.511719 71.589844 L 99.972656 70.933594 C 97.964844 71.160156 97.964844 71.160156 96.238281 71.679688 L 95.492188 77.65625 L 87.277344 77.65625 C 85.785156 73.363281 85.785156 73.363281 85.785156 71.679688 C 83.6875 71.101562 83.6875 71.101562 81.304688 70.933594 C 80.289062 71.652344 79.292969 72.398438 78.320312 73.175781 C 76.871094 73.175781 76.871094 73.175781 75.332031 72.429688 C 73.277344 70.515625 73.277344 70.515625 71.597656 68.695312 L 72.300781 67.015625 C 72.960938 65.300781 73.546875 63.78125 73.839844 61.972656 C 73.554688 60.339844 73.554688 60.339844 73.09375 58.988281 L 70.527344 58.660156 L 67.863281 58.242188 L 67.117188 57.496094 Z M 133.152344 44.519531 L 134.792969 44.496094 C 138.640625 44.515625 141.332031 45.328125 144.773438 47.039062 L 141.785156 53.015625 L 139.820312 52.660156 L 137.214844 52.21875 L 134.640625 51.773438 C 132.097656 51.523438 130.085938 51.726562 127.597656 52.269531 L 128.347656 55.253906 L 130.992188 55.800781 L 134.460938 56.5625 L 136.199219 56.917969 C 138.988281 57.539062 140.871094 58.128906 143.269531 59.746094 C 144.773438 61.226562 144.773438 61.226562 145.519531 62.722656 C 145.789062 64.972656 145.933594 66.511719 145.519531 68.695312 C 144.335938 70.808594 142.96875 72.453125 141.039062 73.921875 C 136.355469 75.875 131.847656 75.800781 126.851562 75.414062 C 124.261719 74.925781 121.738281 74.394531 119.386719 73.175781 L 118.640625 70.933594 C 119.714844 68.554688 119.714844 68.554688 120.878906 66.453125 L 123.726562 67.203125 C 127.769531 68.117188 131.6875 68.085938 135.8125 67.949219 L 136.558594 64.960938 L 133.914062 64.414062 L 130.445312 63.65625 L 128.707031 63.296875 C 125.917969 62.675781 124.035156 62.089844 121.636719 60.46875 C 120.132812 58.988281 120.132812 58.988281 119.386719 57.496094 C 119.109375 55.253906 119.109375 53.015625 119.386719 50.773438 C 120.761719 48.34375 121.964844 47.292969 124.328125 45.839844 C 127.410156 44.570312 129.863281 44.46875 133.152344 44.519531 M 186.585938 44.800781 C 187.972656 44.746094 189.355469 44.738281 190.742188 44.753906 L 193.03125 44.773438 L 194.800781 44.800781 L 195.546875 47.789062 L 197.460938 46.292969 C 200.027344 44.800781 200.027344 44.800781 202.921875 44.613281 L 205.253906 44.800781 L 205.253906 52.269531 L 200.222656 53.214844 C 198.503906 53.660156 198.503906 53.660156 197.242188 54.796875 C 196.132812 56.066406 196.132812 56.066406 195.546875 58.242188 C 195.4375 59.566406 195.359375 60.890625 195.3125 62.214844 L 195.214844 64.542969 L 195.128906 66.96875 L 195.03125 69.417969 C 194.949219 71.417969 194.875 73.417969 194.800781 75.414062 C 193.449219 75.433594 192.09375 75.449219 190.742188 75.460938 L 188.457031 75.488281 L 186.585938 75.414062 L 185.839844 74.667969 C 185.765625 72.523438 185.734375 70.398438 185.742188 68.25 L 185.738281 66.300781 C 185.738281 64.9375 185.742188 63.574219 185.742188 62.210938 C 185.746094 60.117188 185.742188 58.023438 185.738281 55.929688 C 185.738281 54.605469 185.738281 53.285156 185.742188 51.964844 L 185.738281 50.054688 C 185.742188 48.550781 185.789062 47.050781 185.839844 45.546875 Z M 45.464844 44.800781 C 46.847656 44.746094 48.234375 44.738281 49.617188 44.753906 L 51.90625 44.773438 L 53.679688 44.800781 L 54.425781 47.789062 L 56.339844 46.292969 C 58.90625 44.800781 58.90625 44.800781 61.796875 44.613281 L 64.132812 44.800781 L 64.132812 52.269531 L 59.101562 53.214844 C 57.378906 53.660156 57.378906 53.660156 56.121094 54.796875 C 55.007812 56.066406 55.007812 56.066406 54.425781 58.242188 C 54.316406 59.566406 54.238281 60.890625 54.1875 62.214844 L 54.09375 64.542969 L 54.003906 66.96875 L 53.90625 69.417969 C 53.828125 71.417969 53.75 73.417969 53.679688 75.414062 C 52.324219 75.433594 50.972656 75.449219 49.617188 75.460938 L 47.332031 75.488281 L 45.464844 75.414062 L 44.71875 74.667969 C 44.640625 72.523438 44.613281 70.398438 44.617188 68.25 L 44.617188 66.300781 C 44.617188 64.9375 44.617188 63.574219 44.621094 62.210938 C 44.625 60.117188 44.621094 58.023438 44.617188 55.929688 C 44.617188 54.605469 44.617188 53.285156 44.617188 51.964844 L 44.613281 50.054688 C 44.621094 48.550781 44.664062 47.050781 44.71875 45.546875 Z M 45.464844 44.800781 "/><path style=" stroke:none;fill-rule:nonzero;fill:#f27c22;fill-opacity:1;" d="M 66.371094 47.039062 C 68.449219 46.863281 68.449219 46.863281 71.132812 46.871094 L 72.613281 46.871094 C 74.230469 46.871094 75.84375 46.882812 77.460938 46.894531 L 80.820312 46.902344 C 83.769531 46.90625 86.714844 46.921875 89.664062 46.9375 C 92.671875 46.953125 95.679688 46.960938 98.6875 46.96875 C 104.59375 46.984375 110.496094 47.007812 116.398438 47.039062 C 116.867188 48.441406 116.867188 48.441406 117.144531 50.027344 L 115.652344 51.519531 C 113.601562 51.699219 113.601562 51.699219 110.960938 51.691406 L 109.503906 51.691406 C 107.910156 51.6875 106.320312 51.679688 104.726562 51.667969 L 101.417969 51.660156 C 98.515625 51.65625 95.609375 51.640625 92.703125 51.625 C 89.742188 51.609375 86.777344 51.601562 83.816406 51.59375 C 78 51.578125 72.1875 51.550781 66.371094 51.519531 L 64.878906 48.535156 Z M 66.371094 47.039062 "/></g></svg>