<?xml version="1.0" standalone="no"?><!DOCTYPE svg PUBLIC "-//W3C//DTD SVG 1.1//EN"   "http://www.w3.org/Graphics/SVG/1.1/DTD/svg11.dtd"><svg width="864pt" height="864pt" viewBox="0 0 864 864" version="1.1"    xmlns="http://www.w3.org/2000/svg" xmlns:xlink="http://www.w3.org/1999/xlink">  <defs>  </defs>   <path id="Path0" stroke-width="0.7" stroke="#000000" stroke-opacity="1" fill="#2A3472" fill-opacity="1" fill-rule="evenodd" stroke-linecap="round" stroke-linejoin="round" d="M257.5,404.8 C257.3,404.7 257,404.4 256.9,404.2 256.2,403.4 256.2,403.2 256.5,400.9 257.3,394.2 257.6,383.5 257,382.5 256.8,382.1 253.9,379.1 250.6,375.7 245.6,370.7 244.3,369.6 243.4,369.3 242.5,369.1 241.1,369.1 237.8,369.3 235.4,369.5 230.9,369.8 227.8,369.8 227.8,369.8 222.3,370 222.3,370 222.3,370 221.9,369.2 221.9,369.2 221.8,368.7 221.4,367.8 221.1,367.1 220.3,365.2 218,359.5 217.1,357.4 216.6,356.4 216.3,355.2 216.3,354.9 216.3,354.5 216.8,353.7 217.9,352.8 218.8,352 220.4,350.5 221.5,349.5 222.6,348.5 224.1,347.1 224.8,346.5 227.3,344.3 227.5,344.1 227.6,340.9 227.7,339.3 227.9,337.8 228,337.7 228.2,337.4 231.3,337.3 240.4,337.3 240.4,337.3 252.6,337.3 252.6,337.3 252.6,337.3 252.7,338.1 252.7,338.1 252.8,338.5 253.1,339.7 253.4,340.7 253.8,341.7 254,342.9 254,343.2 254,343.6 254.2,344.2 254.6,344.6 254.9,345 255.1,345.6 255.1,345.9 255.1,346.5 256.4,349.5 257.1,350.6 257.3,350.9 257.6,351.5 257.8,352 258.1,352.5 258.4,352.9 258.5,352.9 258.7,352.9 258.8,353.1 258.8,353.4 258.8,354.8 268,365.1 269.2,365.1 269.4,365.1 269.6,365.2 269.6,365.3 269.6,365.7 272.9,367.9 273.4,367.9 273.6,367.9 273.8,368.1 273.8,368.2 273.8,368.4 274.3,368.7 274.8,369 275.3,369.2 276.2,369.7 276.9,370.1 277.6,370.5 278.4,370.8 278.6,370.8 278.8,370.8 279.4,371 279.9,371.3 280.4,371.6 281.1,371.9 281.5,371.9 281.9,371.9 282.4,372.1 282.6,372.3 282.8,372.5 283.6,372.8 284.3,372.9 285,373 285.8,373.2 286.1,373.3 286.4,373.5 287.7,373.7 289.1,373.9 290.4,374.1 292.5,374.3 293.7,374.5 294.9,374.6 296.6,374.7 297.5,374.6 301,374.2 305.4,373.6 305.8,373.4 306.1,373.2 307,373 307.8,372.9 308.6,372.8 309.4,372.5 309.6,372.3 309.8,372.1 310.3,371.9 310.7,371.9 311.1,371.9 311.8,371.6 312.3,371.3 312.9,371 313.4,370.8 313.6,370.8 313.9,370.8 314.6,370.5 315.3,370.1 316,369.7 316.9,369.2 317.4,368.9 319.4,367.9 322.6,365.7 322.6,365.4 322.6,365.2 322.8,365.1 323,365.1 323.3,365.1 323.8,364.6 327.2,361.6 328.5,360.4 330.6,357.9 330.6,357.5 330.6,357.3 330.7,357.2 330.8,357.2 331,357.2 333.1,354.4 333.5,353.5 333.6,353.2 334,352.5 334.4,351.9 335.9,349.4 337.4,346 337.4,345.1 337.4,344.8 337.5,344.3 337.8,344.1 338,343.9 338.3,343.2 338.4,342.5 338.5,341.7 338.7,341 338.8,340.8 338.9,340.7 339.2,339.8 339.3,339 339.3,339 339.5,337.5 339.5,337.5 339.5,337.5 351.7,337.4 351.7,337.4 362.9,337.3 363.9,337.4 364.2,337.8 364.5,338.1 364.6,339.3 364.6,341 364.6,341 364.6,343.7 364.6,343.7 364.6,343.7 367,346 367,346 368.3,347.2 370.1,348.9 371.1,349.8 372,350.7 373.5,352 374.4,352.9 375.9,354.3 376,354.4 375.8,355.4 375.7,355.9 375.4,356.9 375.1,357.4 374.8,358 374.5,358.6 374.5,358.8 374.5,359 374.3,359.5 374.1,359.9 373.4,361.3 372.6,363.2 372,364.8 371.6,365.7 371.2,366.8 371,367.2 370.7,367.7 370.5,368.4 370.4,368.8 370.3,369.2 370,369.7 369.8,369.8 369.3,370 363.6,370 363.2,369.8 363,369.7 360,369.5 354.1,369.2 351.3,369.1 349.6,369.1 348.8,369.3 347.8,369.6 346.6,370.6 341.6,375.7 338.3,379 335.4,382.1 335.2,382.5 334.9,383.1 334.9,384.5 335.1,390.4 335.3,394.3 335.5,398.9 335.6,400.6 335.7,403.5 335.7,403.7 335.1,404.4 334.7,404.8 334.2,405.1 334,405.1 333.8,405.1 333.1,405.3 332.4,405.6 331.8,405.9 330.4,406.5 329.4,407 328.4,407.5 327.3,407.9 326.9,408 326.5,408.1 325.8,408.4 325.3,408.6 322.6,409.9 321.1,410.5 320.5,410.5 319.9,410.5 317.4,408.1 314.8,405 314.5,404.6 314.3,404.3 314.1,404.1 314.1,404.1 313.8,403.9 313.8,403.9 313.8,403.9 313.6,403.6 313.6,403.6 313.4,403.3 313.2,403.1 313,402.9 313,402.9 312.9,402.8 312.9,402.8 312.9,402.8 312.9,402.8 312.9,402.8 312.8,402.5 312.4,402.1 311.8,401.4 311.6,401.2 311.2,400.6 311,400.2 310.8,399.7 309.6,398.4 308.4,397.1 306.4,395.1 306,394.9 304.8,394.7 302.1,394.4 288.2,394.4 287.1,394.7 286,395 284.6,396.3 282.6,398.9 281.1,400.8 276.6,405.9 274.1,408.5 272.1,410.7 271.6,410.8 269.7,409.9 268.6,409.3 263,407 261,406.3 260.4,406.1 259.6,405.7 259.3,405.5 259,405.3 258.4,405.1 258.1,405.1 257.9,405.1 257.7,405 257.5,404.8 Z " />
   <path id="Path1" stroke-width="0.7" stroke="#000000" stroke-opacity="1" fill="#2A3472" fill-opacity="1" fill-rule="evenodd" stroke-linecap="round" stroke-linejoin="round" d="M280.5,403.6 C280.5,403.6 280.4,403.9 280.4,403.9 280.4,403.9 280.4,403.9 280.4,403.9 280.4,403.8 280.4,403.7 280.5,403.6 280.5,403.6 280.5,403.6 280.5,403.6 Z " />
   <path id="Path2" stroke-width="0.7" stroke="#000000" stroke-opacity="1" fill="#FFFFFF" fill-opacity="1" fill-rule="evenodd" stroke-linecap="round" stroke-linejoin="round" d="M299.6,386.3 C300.1,385.8 300,382.7 299.4,381.3 299.4,381.3 298.8,380.1 298.8,380.1 298.8,380.1 296.6,380.1 296.6,380.1 295.4,380.1 294.1,380.2 293.8,380.3 293,380.5 292.6,382.1 292.6,384.5 292.6,386.6 292.4,386.5 296.5,386.6 298.3,386.6 299.4,386.5 299.6,386.3 Z " />
   <path id="Path3" stroke-width="0.7" stroke="#000000" stroke-opacity="1" fill="#FFFFFF" fill-opacity="1" fill-rule="evenodd" stroke-linecap="round" stroke-linejoin="round" d="M259.4,372.1 C260.4,371.6 262.2,369.7 262.5,368.8 263,367.7 262.6,366.7 261.2,365.5 258.9,363.6 258.9,363.6 258.2,364.1 257.8,364.3 257.4,364.5 257.1,364.5 256.7,364.5 255.2,366 254.4,367.2 253.9,367.9 254,368 255.4,369.5 256.3,370.4 257.1,371.3 257.3,371.4 257.5,371.6 257.9,371.9 258,372.1 258.5,372.5 258.6,372.5 259.4,372.1 Z " />
   <path id="Path4" stroke-width="0.7" stroke="#000000" stroke-opacity="1" fill="#FFFFFF" fill-opacity="1" fill-rule="evenodd" stroke-linecap="round" stroke-linejoin="round" d="M336.4,369.9 C338.2,368.1 338.3,367.9 338,367.3 337.8,366.9 337,366 336.2,365.4 335.3,364.8 334.5,364.1 334.2,363.8 334,363.6 333.6,363.4 333.5,363.4 333.1,363.4 330.3,366.2 329.6,367.2 329.1,368 329.1,368 330.3,369.5 331.7,371.3 332.2,371.8 333,372 334,372.2 334.4,371.9 336.4,369.9 Z " />
   <path id="Path5" stroke-width="0.7" stroke="#000000" stroke-opacity="1" fill="#2A3472" fill-opacity="1" fill-rule="evenodd" stroke-linecap="round" stroke-linejoin="round" d="M761.7,382.2 C758,381.7 755.9,380.8 753.2,378.7 750.9,376.9 748.2,373.9 748.2,373.1 748.2,372.9 748,372.5 747.7,372.2 747.4,371.9 747.1,371.2 747.1,370.8 747.1,370.3 747,369.9 746.9,369.8 746.4,369.5 746.2,367.8 746.2,362.6 746.2,358 746.3,357.3 746.8,356.2 747.1,355.5 747.4,354.7 747.4,354.4 747.4,354.1 747.5,353.7 747.6,353.6 747.8,353.6 748.2,352.8 748.7,351.9 749.1,351 749.7,350.2 749.9,350.2 750.1,350.1 750.2,349.9 750.2,349.8 750.2,349.1 754.8,345.3 756.9,344.3 757.4,344 757.9,343.7 758.2,343.6 759.2,343 760.6,342.4 761.5,342.3 762,342.2 762.5,341.9 762.7,341.7 762.9,341.5 763.4,341.3 763.9,341.3 764.4,341.3 765.1,341.1 765.5,340.9 765.9,340.6 766.6,340.5 767,340.4 767.4,340.4 768.5,340.2 769.5,339.9 770.5,339.5 772.1,339.3 773.1,339.3 774.1,339.3 775.4,339.1 776,338.9 776.8,338.5 778,338.4 781.6,338.4 784.1,338.5 786.5,338.3 786.9,338.2 787.6,337.9 787.7,337.8 787.7,336.5 787.7,335.6 787.4,334.7 787.1,334.1 786.5,332.9 784.6,331.1 783.7,330.9 783.3,330.8 782.8,330.6 782.5,330.4 782.3,330.2 780.4,329.9 778.2,329.7 773.6,329.3 763.7,329.7 761.6,330.4 760.9,330.6 760.1,330.8 759.7,330.8 759,330.8 755.4,331.7 753.6,332.3 752.9,332.5 751.7,332.8 750.9,332.8 750.9,332.8 749.5,332.9 749.5,332.9 749.5,332.9 749.5,321.9 749.5,321.9 749.5,321.9 749.5,310.9 749.5,310.9 749.5,310.9 751.1,310.4 751.1,310.4 751.9,310.1 753.1,309.8 753.8,309.8 754.4,309.8 755.4,309.6 756,309.4 756.7,309.2 758.3,308.9 759.6,308.8 760.9,308.7 762.2,308.5 762.6,308.3 762.9,308.1 765,307.9 768.2,307.7 771,307.6 774.8,307.4 776.7,307.3 778.9,307.1 780.7,307.1 782.2,307.2 783.4,307.4 786.2,307.6 788.5,307.7 791.2,307.8 792.8,308 793,308.3 793.3,308.5 794.2,308.7 795.1,308.8 796,308.9 797.1,309.2 797.5,309.4 797.9,309.6 798.6,309.8 799,309.8 799.4,309.8 799.9,310 800.3,310.3 800.6,310.5 801,310.7 801.3,310.7 801.5,310.7 801.9,310.9 802.1,311.1 802.3,311.3 802.7,311.5 802.9,311.5 804,311.5 808.2,315.1 810.7,318.1 812.6,320.4 814.3,324.5 814.9,328.1 815.3,330.6 815.5,335.9 815.5,348.1 815.6,356.6 815.7,359.2 815.9,359.5 816.1,359.7 817.2,359.9 818.3,360 819.6,360 820.4,360.2 820.6,360.5 821.1,361.1 821.3,380 820.8,380.6 820.2,381.3 788.7,380.7 788,380 787.8,379.8 787.3,376.7 787.2,375.2 787.2,374.5 787.1,373.8 787.1,373.5 787,372.6 786.2,373.1 783.9,375.3 781.8,377.4 780.7,378.3 778.7,379.5 777,380.5 773.6,381.8 771.6,382.2 769.9,382.6 763.9,382.6 761.7,382.2 Z " />
   <path id="Path6" stroke-width="0.7" stroke="#000000" stroke-opacity="1" fill="#FFFFFF" fill-opacity="1" fill-rule="evenodd" stroke-linecap="round" stroke-linejoin="round" d="M783,362.2 C785.8,360.7 787.9,356.2 787.5,352.6 787.3,350.3 786.8,350 783.8,350.2 781.3,350.4 777.9,351.4 777,352.1 774.7,354.2 774.3,355 774.3,357.6 774.3,358.8 774.5,359.5 774.7,359.8 775,360.1 775.2,360.3 775.2,360.4 775.2,360.8 776.4,362 776.8,362 776.9,362 777.2,362.2 777.4,362.4 778.1,363.2 781.3,363.1 783,362.2 Z " />
   <path id="Path7" stroke-width="0.7" stroke="#000000" stroke-opacity="1" fill="#2A3472" fill-opacity="1" fill-rule="evenodd" stroke-linecap="round" stroke-linejoin="round" d="M420,382.1 C417.5,382 414.2,381.7 412.6,381.4 411.1,381.2 408.6,380.8 407.1,380.5 405.6,380.3 404.1,380 403.7,379.8 403.3,379.7 402.2,379.4 401.2,379.2 399.2,378.7 396.9,377.9 395.8,377.3 395.8,377.3 395.2,377 395.2,377 395.2,377 395.3,368.1 395.3,368.1 395.3,368.1 395.3,359.3 395.3,359.3 395.3,359.3 405,359.3 405,359.3 405,359.3 414.6,359.3 414.6,359.3 414.6,359.3 415.2,361.2 415.2,361.2 415.6,362.7 416.1,363.5 417.1,364.5 418.3,365.7 418.7,365.9 420.6,366.3 423.4,366.9 423.8,366.9 426.3,366.3 428,365.9 428.6,365.6 429.7,364.7 429.7,364.7 431,363.5 431,363.5 431,363.5 430.9,360.9 430.9,360.9 430.8,358.5 430.7,358.3 429.9,357.5 429.5,357 428.9,356.6 428.6,356.6 428.4,356.6 428,356.4 427.7,356.1 427.4,355.7 426.6,355.5 425.8,355.3 424.9,355.2 424.2,355 424,354.9 423.8,354.8 422,354.4 420,354.1 415.6,353.3 412.8,352.7 411.1,352.2 410.4,351.9 409.4,351.6 409,351.5 407.8,351.2 404.7,349.7 403.4,348.8 401.2,347.2 397.2,342.4 397.2,341.3 397.2,341.1 397.1,340.8 396.9,340.5 396.2,339.1 395.5,336 395.4,333.2 395.2,329.7 395.6,324.1 396,323.6 396.2,323.5 396.3,323.1 396.3,322.9 396.3,322.6 396.5,322.1 396.8,321.6 397,321.2 397.2,320.6 397.2,320.3 397.2,320 397.3,319.7 397.5,319.6 397.6,319.5 398.1,318.9 398.4,318.4 399.4,316.8 402,314.3 403.7,313.2 404.5,312.7 405.1,312.2 405.1,312.1 405.1,311.9 405.5,311.8 406,311.7 406.4,311.6 406.9,311.3 407.1,311.1 407.3,310.9 407.6,310.7 407.8,310.7 408.1,310.7 409.3,310.2 411.5,309.3 411.8,309.1 412.7,308.9 413.4,308.8 414.1,308.7 414.8,308.5 415.1,308.3 415.3,308.1 416.8,307.8 418.7,307.7 420.5,307.6 422.9,307.4 424,307.3 425.4,307.1 427,307.1 428.9,307.2 430.4,307.4 433.4,307.6 435.6,307.7 438.1,307.8 439.7,308 440.1,308.3 440.4,308.5 441.5,308.7 442.4,308.8 443.4,308.9 444.4,309.2 444.7,309.3 445,309.5 445.7,309.7 446.2,309.9 448.2,310.3 449.9,310.8 450.2,311.1 450.5,311.3 451.1,311.5 451.7,311.6 452.5,311.8 452.8,312 453.2,312.9 453.7,314 453.7,314.7 453.5,321.6 453.4,325.8 453.3,329.3 453.2,329.4 453,329.6 436.9,329.4 435.7,329.1 434.9,329 434.8,328.8 434.8,328.3 435,327 432.8,324 431.7,324 431.5,324 431.2,323.8 430.9,323.5 430.5,323.2 429.7,323.1 426.9,323 423.5,323 423.4,323 422.2,323.9 421.2,324.5 420.8,325.1 420.4,326.1 419.9,327.4 419.9,327.6 420.3,328.8 420.8,330.3 422.8,332.5 423.6,332.5 423.8,332.5 424.3,332.7 424.6,332.9 424.9,333.1 425.6,333.3 426.1,333.3 426.7,333.4 427.5,333.6 428,333.8 428.4,334.1 429.7,334.3 430.8,334.4 431.9,334.4 433,334.7 433.4,334.9 433.7,335.1 434.6,335.3 435.3,335.3 436,335.3 437.3,335.6 438.2,335.9 439.1,336.2 440.1,336.5 440.5,336.5 440.8,336.5 441.4,336.7 441.9,336.9 442.3,337.1 443,337.3 443.3,337.3 443.7,337.3 444.1,337.5 444.4,337.7 444.6,338 445,338.2 445.2,338.2 446.3,338.2 451.1,341.6 452.5,343.5 453,344.1 453.5,344.6 453.6,344.7 454.4,345.3 456.7,350.1 457.1,351.9 457.7,355.4 457.8,356.3 457.8,358.4 457.9,362.6 456.8,367.3 455,370.3 454.5,371 454.2,371.7 454.2,371.9 454.2,372 454,372.3 453.7,372.5 453.4,372.7 452.7,373.4 452.2,374 448.2,378.5 440.8,381.5 432.4,382.1 428,382.4 427.1,382.4 420,382.1 Z " />
   <path id="Path8" stroke-width="0.7" stroke="#000000" stroke-opacity="1" fill="#2A3472" fill-opacity="1" fill-rule="evenodd" stroke-linecap="round" stroke-linejoin="round" d="M495.3,382.1 C492.3,381.9 489.5,381.3 486.4,380.4 483.2,379.4 481.8,378.9 481.4,378.5 481.1,378.3 480.8,378.1 480.6,378.1 480,378.1 475.9,375.5 474.5,374.2 472.5,372.4 469.2,369 469.2,368.7 469.2,368.6 469,368.3 468.8,368 468.2,367.4 466.4,364.3 466.4,363.9 466.4,363.8 466.1,363.3 465.8,362.9 465.5,362.5 465.2,361.9 465.2,361.5 465.2,361.1 465.1,360.6 464.8,360.4 464.6,360.2 464.4,359.6 464.4,359.1 464.4,358.7 464.2,357.8 464,357.3 463.7,356.7 463.5,355.8 463.5,355.2 463.5,354.6 463.3,353.5 463.1,352.7 462.5,351 462.2,341.3 462.6,339 463.2,336.1 463.6,334.1 463.9,332.9 464,332.3 464.2,331.3 464.4,330.6 464.5,329.9 464.7,329.2 464.9,329 465.1,328.7 465.3,328.1 465.4,327.5 465.5,326.9 465.7,326.3 465.9,326.2 466.2,326.1 466.4,325.7 466.4,325.4 466.4,325.1 466.5,324.7 466.7,324.5 467,324.3 467.4,323.6 467.8,322.9 468.2,322.2 468.7,321.4 469,321.1 469.3,320.8 469.5,320.5 469.5,320.3 469.5,319.2 477.9,312.3 480,311.7 480.4,311.5 480.9,311.3 481.1,311.1 481.6,310.7 485.7,309.3 487.7,308.8 488.6,308.6 489.5,308.3 489.7,308.2 489.9,308 491.6,307.8 493.5,307.7 495.3,307.6 497.4,307.4 498,307.3 499.4,306.9 502.7,306.9 504.2,307.3 504.9,307.4 507,307.6 508.9,307.7 511.4,307.8 512.6,308 512.9,308.3 513.1,308.5 513.7,308.7 514.2,308.7 514.6,308.7 515.5,309 516.1,309.3 516.8,309.6 517.4,309.8 517.6,309.8 518.2,309.8 522.5,312.1 522.5,312.4 522.5,312.5 522.7,312.7 522.8,312.7 523.3,312.7 525.5,314.5 526.8,315.9 527.3,316.5 528,317.3 528.4,317.6 529.5,318.8 533,324.7 533,325.5 533,325.8 533.2,326.3 533.4,326.7 534,327.9 534.7,330.4 534.7,331.3 534.7,331.8 534.9,333 535.2,334.1 535.6,336.2 535.9,347.6 535.5,348.4 535.3,348.9 533.8,348.9 514.6,348.9 499.3,348.9 493.8,348.9 493.5,349.2 493,349.7 493.2,352.9 493.9,354.4 494.2,355.2 494.7,355.9 494.9,355.9 495.1,356 495.3,356.3 495.3,356.5 495.3,357 497.5,358.8 498.9,359.3 500.1,359.8 501.2,359.8 508.5,359.9 513.8,359.9 517.3,359.7 518.3,359.5 519.1,359.3 520.9,359.1 522.1,358.9 525.8,358.5 528.8,357.9 529.1,357.5 529.3,357.3 529.9,357.2 530.5,357.2 531,357.2 531.7,357 532.1,356.7 532.6,356.4 532.7,356.4 533.1,357.5 533.5,358.6 533.6,360.1 533.6,367.3 533.6,377.3 533.9,376.2 530,377.8 526.4,379.2 523.3,380 516,381.4 511.5,382.3 502.1,382.6 495.3,382.1 Z " />
   <path id="Path9" stroke-width="0.7" stroke="#000000" stroke-opacity="1" fill="#FFFFFF" fill-opacity="1" fill-rule="evenodd" stroke-linecap="round" stroke-linejoin="round" d="M509.1,335.2 C509.7,334.8 509.8,334.5 509.8,333.1 509.8,332.1 509.6,330.9 509.3,330.3 509.1,329.8 508.9,329.1 508.9,328.8 508.9,328.3 507.2,326.6 505.5,325.4 504.6,324.8 504.2,324.7 501.3,324.7 498.3,324.7 497.9,324.8 496.9,325.4 494.3,327 493.2,329 493.2,332.4 493.2,333.9 493.3,334.8 493.5,335.1 493.9,335.5 494.9,335.6 501.2,335.6 507.1,335.6 508.6,335.5 509.1,335.2 Z " />
   <path id="Path10" stroke-width="0.7" stroke="#000000" stroke-opacity="1" fill="#2A3472" fill-opacity="1" fill-rule="evenodd" stroke-linecap="round" stroke-linejoin="round" d="M170.5,380.8 C170,380.7 161.2,380.7 150.9,380.6 136,380.6 132,380.5 131.7,380.2 131.4,379.9 131.3,377.7 131.3,370.8 131.2,365.9 131.3,361.4 131.4,360.9 131.4,360.9 131.5,360 131.5,360 131.5,360 134.2,360 134.2,360 135.7,360 136.9,359.9 137,359.7 137.1,359.6 137.2,353 137.2,345 137.2,332.5 137.1,330.4 136.8,330 136.4,329.6 134.7,329.2 132.5,329 132.2,328.9 131.7,328.8 131.6,328.7 131.1,328.4 131.2,310 131.7,309.3 132,308.9 133.3,308.8 148.8,308.9 148.8,308.9 165.7,308.9 165.7,308.9 165.7,308.9 166,309.9 166,309.9 166.2,310.4 166.3,312 166.3,313.7 166.3,318.2 166.4,318.2 171,313.7 173.4,311.3 176.7,309 177.5,309 177.6,309 178.2,308.7 178.8,308.4 179.8,307.9 182.4,307.4 185.8,307.1 186.5,307 187.6,307.1 188.2,307.2 188.7,307.4 190.1,307.6 191.1,307.7 192.4,307.7 193.2,307.9 193.6,308.2 193.8,308.5 194.2,308.7 194.4,308.7 194.6,308.7 194.8,309 194.9,309.3 195,309.7 195,315.1 195,321.3 194.9,331.2 194.8,332.6 194.4,332.6 194.2,332.6 193.3,332.3 192.3,332.1 191.4,331.8 190.2,331.5 189.6,331.3 189.1,331.2 186.5,331.1 184,331.1 179.7,331.1 179.1,331.1 177.3,331.7 171.5,333.7 169,336.3 167.2,342.1 166.6,343.8 166.6,344.9 166.5,351.4 166.4,358.6 166.4,358.9 166.9,359.4 167.5,360 167.9,360 172.5,360 177.3,360 177.4,360 177.8,360.6 178.1,361.1 178.1,363.6 178.1,370.9 178.1,370.9 178.1,380.6 178.1,380.6 178.1,380.6 174.7,380.7 174.7,380.7 172.9,380.8 171,380.8 170.5,380.8 Z " />
   <path id="Path11" stroke-width="0.7" stroke="#000000" stroke-opacity="1" fill="#2A3472" fill-opacity="1" fill-rule="evenodd" stroke-linecap="round" stroke-linejoin="round" d="M37.6,380.4 C36.5,380.3 35.4,380.1 35.2,380 34.9,379.9 34.8,377.7 34.8,370.5 34.8,365.4 34.9,361 35,360.6 35.1,360 35.3,360 37.9,360 39.7,360 40.8,359.9 41.1,359.6 41.6,359.3 41.6,357.4 41.5,330.5 41.5,303.6 41.4,301.7 41,301 40.5,300.3 40.3,300.3 38,300.2 36,300.2 35.4,300.1 35.2,299.7 34.9,299.3 34.8,297.1 34.9,289.7 34.9,289.7 34.9,280.2 34.9,280.2 34.9,280.2 67.7,280.2 67.7,280.2 92.8,280.2 100.6,280.3 101,280.5 101.4,280.7 102.5,281 103.6,281.1 104.7,281.2 105.7,281.4 106,281.6 106.2,281.8 107,282.1 107.7,282.2 108.5,282.3 109.2,282.6 109.4,282.8 109.6,283 109.9,283.2 110.2,283.2 110.4,283.2 111.3,283.6 112.2,284 113,284.5 113.8,284.9 114,284.9 114.3,284.9 116.7,286.8 118.8,288.8 122.6,292.4 124.2,295.6 125.4,301.9 126.2,305.6 126.2,314.5 125.4,318.3 124.5,323.3 122.9,327.1 120.4,330.2 119.1,331.9 116.2,334.3 114.4,335.4 113,336.2 109.4,337.9 109,337.9 108.8,337.9 108.3,338.1 107.9,338.3 107.5,338.5 106.4,338.8 105.5,339 104.7,339.2 103.8,339.4 103.7,339.5 102.8,340 95.2,340.4 86.9,340.4 78.9,340.4 77.9,340.5 77.6,340.9 77.3,341.3 77.2,343 77.3,349.6 77.3,354.2 77.3,358.1 77.3,358.4 77.4,359.8 77.5,359.8 83.6,360 83.6,360 89.4,360.1 89.4,360.1 89.4,360.1 89.6,361.4 89.6,361.4 89.8,363 89.9,379.6 89.6,380.2 89.5,380.6 87,380.7 64.6,380.7 50.9,380.6 38.8,380.5 37.6,380.4 Z " />
   <path id="Path12" stroke-width="0.7" stroke="#000000" stroke-opacity="1" fill="#FFFFFF" fill-opacity="1" fill-rule="evenodd" stroke-linecap="round" stroke-linejoin="round" d="M86.2,321.9 C87.7,320.9 89,319.7 89,319.2 89,319 89.2,318.6 89.5,318.2 89.9,317.8 90,317 89.9,311.3 89.9,305.9 89.8,304.9 89.4,304.5 89.2,304.2 89,303.8 89,303.7 89,303.2 87.2,301.8 85.7,301 84.5,300.5 83.9,300.4 80.8,300.4 78,300.3 77.3,300.4 77,300.8 76.8,301 76.8,302.4 76.9,304.4 77,306.2 77.1,310.9 77.2,314.8 77.2,318.8 77.4,322.1 77.5,322.3 77.6,322.5 79.1,322.6 81.5,322.6 85,322.6 85.4,322.5 86.2,321.9 Z " />
   <path id="Path13" stroke-width="0.7" stroke="#000000" stroke-opacity="1" fill="#2A3472" fill-opacity="1" fill-rule="evenodd" stroke-linecap="round" stroke-linejoin="round" d="M559.9,380.6 C559.9,380.5 555.7,380.4 550.8,380.4 545.8,380.4 541.6,380.3 541.3,380.2 541,380.1 541,378.4 541,370.6 541,364.6 541.1,360.9 541.2,360.5 541.5,360.1 541.9,360 543.7,360 545.1,360 546.1,359.9 546.3,359.7 546.7,359.2 546.8,331.5 546.4,330.4 546.1,329.8 545.8,329.7 543.9,329.4 542.7,329.2 541.5,328.9 541.3,328.8 540.8,328.4 540.8,309 541.3,309 541.5,309 549.2,308.9 558.4,308.9 558.4,308.9 575.1,308.9 575.1,308.9 575.1,308.9 575.4,309.6 575.4,309.6 575.5,310 575.6,311.5 575.6,313.1 575.6,314.6 575.6,316.1 575.7,316.4 576,317.5 577.1,316.9 579.6,314.4 581,313 582.2,311.8 582.4,311.8 582.5,311.8 582.7,311.6 582.8,311.4 583.2,310.8 585.3,309.6 587.5,308.7 587.8,308.5 588.4,308.3 588.6,308.2 589,307.9 594,307.2 595.4,307.2 595.8,307.2 597.5,307.3 599.3,307.6 602,307.9 602.6,308 603.4,308.7 603.4,308.7 604.3,309.5 604.3,309.5 604.3,309.5 604.4,321 604.4,321 604.4,321 604.5,332.5 604.5,332.5 604.5,332.5 603.8,332.5 603.8,332.5 603.5,332.5 603,332.4 602.9,332.2 602.6,331.9 601.5,331.7 598.1,331.1 596.3,330.7 589.5,330.9 587.7,331.3 582.7,332.6 579.6,335 577.7,339.2 576.2,342.3 575.8,344.9 575.8,352.6 575.8,357.4 575.9,359.4 576.2,359.7 576.4,359.9 578,360 581.7,360 581.7,360 586.8,360 586.8,360 586.8,360 587.2,361.4 587.2,361.4 587.6,363.4 587.7,379.7 587.2,380.2 586.9,380.5 583.6,380.6 573.5,380.6 566.1,380.7 560,380.7 559.9,380.6 Z " />
   <path id="Path14" stroke-width="0.7" stroke="#000000" stroke-opacity="1" fill="#2A3472" fill-opacity="1" fill-rule="evenodd" stroke-linecap="round" stroke-linejoin="round" d="M613.3,380.5 C609.9,380.4 609.8,380.4 609.6,379.7 609.1,378.5 609.2,361.1 609.6,360.5 609.9,360.1 610.6,360 612.6,359.9 612.6,359.9 615.1,359.9 615.1,359.9 615.1,359.9 615.2,345.3 615.2,345.3 615.2,335.6 615.2,330.6 615,330.2 614.7,329.8 614.4,329.7 613.5,329.7 612.9,329.7 612,329.5 611.6,329.2 611.1,329 610.4,328.8 610.1,328.9 610.1,328.9 609.4,329 609.4,329 609.4,329 609.4,319.3 609.4,319.3 609.3,314 609.4,309.5 609.6,309.3 609.8,308.9 612.5,308.9 626.8,308.9 643,308.9 643.7,308.9 643.9,309.4 644,309.7 644.1,311.6 644.2,313.7 644.2,315.7 644.3,317.5 644.4,317.7 644.9,318.4 646,317.8 648.5,315.3 649.9,314 651.7,312.5 652.4,312 653.2,311.5 653.8,311 653.8,310.9 653.8,310.8 654,310.7 654.2,310.7 654.5,310.7 655.4,310.3 656.2,309.8 657.1,309.4 658.2,308.9 658.7,308.8 659.2,308.7 659.8,308.5 660,308.3 660.3,308.1 661.5,307.8 662.7,307.7 663.9,307.6 665.4,307.4 666.1,307.2 666.8,307.1 668.1,307 668.9,307.1 669.7,307.2 671.6,307.4 673.1,307.5 675.1,307.7 675.8,307.9 676,308.2 676.1,308.5 676.5,308.7 676.8,308.7 677.2,308.7 678,309.1 678.8,309.5 679.6,310 680.3,310.4 680.4,310.4 681.3,310.4 686.7,316.8 686.7,317.8 686.7,318 686.9,318.4 687.1,318.6 687.3,318.8 687.6,319.3 687.7,319.8 687.9,320.8 688.7,320.9 689.6,319.9 691.1,318.4 693.9,315.1 694,314.9 694.1,314.8 694.2,314.6 694.4,314.6 694.5,314.6 695,314.3 695.5,313.8 696.1,313.3 697,312.6 697.6,312.2 698.2,311.7 698.9,311.2 699,311 699.1,310.8 699.4,310.7 699.6,310.7 699.8,310.7 700.7,310.3 701.6,309.8 702.4,309.4 703.6,308.9 704.1,308.8 704.6,308.7 705.2,308.4 705.5,308.2 706,307.8 707,307.7 713.2,307.7 719.6,307.7 720.4,307.7 720.9,308.2 721.2,308.5 721.7,308.7 722.1,308.7 722.4,308.7 723,308.9 723.4,309.3 723.8,309.6 724.2,309.8 724.4,309.8 725.1,309.8 730.1,314.2 730.1,314.8 730.1,314.9 730.5,315.5 731.1,316.3 731.6,317 732.1,317.8 732.1,318 732.1,318.3 732.2,318.6 732.3,318.8 732.6,319.1 733.6,322.6 733.9,324 734,324.5 734.2,325.7 734.3,326.6 734.5,327.5 734.7,335.2 734.8,343.9 734.9,352.5 735,359.7 735.1,359.8 735.2,359.9 736.3,360 737.6,360 737.6,360 740,360 740,360 740,360 740.3,361.1 740.3,361.1 740.7,362.4 741,379.5 740.6,380.1 740.4,380.4 737,380.5 723,380.6 706,380.7 701.4,380.6 700.6,380.1 700.2,379.9 700.2,378.4 700.2,370.4 700.2,363.2 700.3,360.7 700.6,360.4 700.9,360.1 701.5,360 703.2,360 705.1,360 705.4,359.9 705.7,359.4 705.9,359 706,355.2 705.9,347 705.8,336.2 705.8,335.1 705.3,333.9 704.7,332.5 703.3,330.8 702.7,330.8 702.5,330.8 702.2,330.6 702,330.3 701.8,329.9 701.3,329.8 697.9,329.8 694.2,329.8 693.9,329.8 693.3,330.4 692.9,330.8 692.5,331.1 692.2,331.1 691.7,331.1 690.7,332.9 690.1,334.9 689.7,336.5 689.5,359.4 690,359.7 690.1,359.9 691.2,360 692.4,360.1 692.4,360.1 694.5,360.1 694.5,360.1 694.5,360.1 694.9,361.6 694.9,361.6 695.3,363.3 695.2,379.9 694.7,380.4 694.4,380.8 656.3,380.7 655.5,380.3 655.1,380.1 655.1,378.8 655.1,370.4 655.1,365.1 655.2,360.5 655.3,360.4 655.5,360.1 656.3,360 657.9,360 660.2,360 660.3,360 660.5,359.4 660.8,358.1 660.5,334.6 660.2,334.2 660,334 659.7,333.5 659.6,333.1 659.4,332.3 658.4,331.1 657.9,331.1 657.7,331.1 657.3,330.8 656.9,330.4 656.3,329.9 656,329.8 652.4,329.8 649.3,329.8 648.6,329.9 648.3,330.3 648.1,330.5 647.7,330.8 647.4,330.9 647,331 646.5,331.5 646.3,332 646.1,332.4 645.8,332.8 645.6,332.8 645.5,332.8 645.2,333.6 644.9,334.7 644.4,336.4 644.3,338.1 644.2,348 644.1,357.4 644.2,359.4 644.5,359.6 644.7,359.8 645.9,360 647.1,360.1 649.3,360.1 649.4,360.2 649.7,361 650,362 650,373.8 649.7,378 649.7,378 649.5,380.7 649.5,380.7 649.5,380.7 633.2,380.6 633.2,380.6 624.2,380.6 615.2,380.5 613.3,380.5 Z " />
<g id="Group ID: 1">
   <path id="Path15" stroke-width="0.7" stroke="#000000" stroke-opacity="1" fill="#EF802D" fill-opacity="1" fill-rule="evenodd" stroke-linecap="round" stroke-linejoin="round" d="M207.2,329.8 C206.4,329.7 205.5,329.2 204.8,328.6 204.8,328.6 203.7,327.7 203.7,327.7 203.7,327.7 203.7,325.2 203.7,325.2 203.7,323.5 203.8,322.7 204.1,322.6 204.3,322.5 204.4,322.3 204.4,322.2 204.4,322 205.6,320.6 206,320.5 206,320.5 244.4,320.4 291.3,320.4 344.3,320.3 377.9,320.4 379.8,320.6 382.4,320.8 383,320.9 383.8,321.5 386,323.2 386.2,326.3 384.3,328.4 383.3,329.5 382.6,329.6 376,329.9 367.3,330.3 209,330.2 207.2,329.8 Z " />
   <path id="Path16" stroke-width="0.7" stroke="#000000" stroke-opacity="1" fill="#EF802D" fill-opacity="1" fill-rule="evenodd" stroke-linecap="round" stroke-linejoin="round" d="M230,314.3 C224,314.2 218.6,314 218.1,313.8 216.6,313.4 216.3,312.2 216.8,307.9 217.3,303.7 217.5,302.7 218.7,297.7 219.7,294 220.6,291.3 221.2,290.1 221.3,289.8 221.5,289.5 221.5,289.3 221.5,289.2 221.7,288.4 222.1,287.7 222.4,287 222.8,285.9 223.1,285.4 223.3,284.8 224.1,283.2 224.8,281.8 225.5,280.4 226.2,279 226.4,278.6 226.6,278.3 226.8,278 226.9,278 227,278 227.1,277.8 227.1,277.7 227.1,277.3 231.4,271 232.1,270.2 232.4,269.9 232.9,269.3 233.1,269 235.2,265.9 241.8,259.4 246.3,255.9 247.9,254.6 248.8,254.7 248.9,256.2 249,256.8 249.1,257.3 249.4,257.3 250.7,257.3 250.8,258.9 251.1,284.1 251.1,284.1 251.3,297.4 251.3,297.4 251.3,297.4 252.2,298.9 252.2,298.9 253.8,301.6 255.5,302.9 258.9,304 260.1,304.4 263.6,304.5 263.8,304.1 263.9,303.9 264.3,303.8 264.6,303.8 265.3,303.8 268.1,301.9 269.3,300.6 271.4,298.3 271.4,298.6 271.8,259.6 272,245.9 272.1,242.7 272.4,242.6 272.6,242.6 273,242.4 273.3,242.3 275.9,241.3 280.2,240.8 281.2,241.3 281.2,241.3 281.8,241.7 281.8,241.7 281.8,241.7 281.9,257.6 281.9,257.6 281.9,275.8 282.3,295.3 282.7,295.7 282.9,295.8 283,296.2 283,296.5 283,297.9 286.2,301.7 288.3,302.7 289,303 289.9,303.4 290.1,303.5 290.4,303.7 290.9,303.8 291.3,303.8 291.7,303.8 292.1,303.9 292.2,304.1 292.3,304.2 293.3,304.4 294.5,304.4 295.6,304.4 296.6,304.2 296.7,304.1 296.8,303.9 297.2,303.8 297.6,303.8 297.9,303.8 298.8,303.5 299.5,303.2 300.9,302.4 304.2,299.3 304.2,298.8 304.2,298.6 304.4,298.4 304.5,298.4 304.6,298.4 304.8,298.1 305,297.8 305.9,294.9 306,294.3 306.1,278.5 306.3,255.6 306.5,244.4 306.8,244.2 306.9,244.1 307.2,243.6 307.4,242.9 307.9,241.4 308.7,240.8 310.1,240.9 310.8,240.9 311.4,241 311.5,241.1 311.6,241.3 312,241.4 312.5,241.4 312.9,241.4 313.6,241.5 314.1,241.7 315.5,242.3 316,242.5 316.5,242.6 316.9,242.7 316.9,244.6 317.1,260.1 317.5,293.5 317.6,296.1 318.6,298.2 319.8,300.6 323.7,303.4 326.6,304.1 328.5,304.5 329.5,304.3 332,303.1 333.1,302.6 335.4,300.2 335.4,299.6 335.4,299.4 335.5,299.3 335.6,299.2 335.8,299.2 336.1,298.7 336.4,298.1 337,297.2 337,296.5 337.1,277.6 337.1,277.6 337.3,258 337.3,258 337.3,258 338.5,257.9 338.5,257.9 339.6,257.8 339.6,257.8 339.8,256.5 339.9,255.8 340.2,255.2 340.4,255.1 340.8,254.9 342,255.4 342.7,256 342.9,256.1 343.9,256.9 344.9,257.7 347.4,259.6 353.6,265.9 355.7,268.7 361.8,276.7 364.4,281.2 367.2,288.2 368,290.3 368.8,292.2 368.9,292.5 369.1,292.8 369.2,293.3 369.2,293.6 369.2,293.9 369.3,294.2 369.5,294.3 369.6,294.4 369.7,294.8 369.7,295.1 369.7,295.5 369.9,295.9 370,296 370.2,296.1 370.3,296.4 370.9,299.4 371.9,304.5 372.3,307.4 372.5,310.2 372.6,312.7 372.6,312.8 372,313.2 369.8,314.4 372.3,314.4 305,314.4 269.7,314.5 236,314.4 230,314.3 Z " />
   <path id="Path17" stroke-width="0.7" stroke="#000000" stroke-opacity="1" fill="#EF802D" fill-opacity="1" fill-rule="evenodd" stroke-linecap="round" stroke-linejoin="round" d="M260.7,299.2 C258.8,298.1 257.2,296.9 257,296.4 255.9,294.2 255.5,290.6 255.5,282.9 255.5,279.5 255.4,270.4 255.3,262.7 255.1,243.5 255.4,241.1 257.7,240.1 258.3,239.8 259,239.5 259.2,239.4 260.1,238.9 261.1,239.1 262.3,239.8 263.8,240.6 264.6,241.6 265.1,243.4 265.3,244.1 265.6,245 265.7,245.5 265.9,246 266,256.8 266,271.6 266,271.6 266,296.9 266,296.9 266,296.9 264.8,297.7 264.8,297.7 263.3,298.7 261.7,299.5 261.5,299.5 261.4,299.5 261,299.3 260.7,299.2 Z " />
   <path id="Path18" stroke-width="0.7" stroke="#000000" stroke-opacity="1" fill="#EF802D" fill-opacity="1" fill-rule="evenodd" stroke-linecap="round" stroke-linejoin="round" d="M292,299 C291,298.7 289.7,297.6 288.6,296 288.6,296 287.7,294.6 287.7,294.6 287.7,294.6 287.7,268 287.7,268 287.7,239.9 287.7,238.3 289,236 289.8,234.6 290.9,233.4 291.5,233.4 291.8,233.4 292.1,233.3 292.2,233.2 292.3,232.9 295.9,233 296.2,233.2 296.3,233.3 296.7,233.4 297.1,233.4 298.1,233.4 299.3,234.4 300,235.7 301,237.7 301.1,241 301.1,263.8 301.1,289.2 300.9,293.5 300,295.1 299.2,296.7 298.2,297.6 296.8,298.4 295.6,299 293.2,299.3 292,299 Z " />
   <path id="Path19" stroke-width="0.7" stroke="#000000" stroke-opacity="1" fill="#EF802D" fill-opacity="1" fill-rule="evenodd" stroke-linecap="round" stroke-linejoin="round" d="M325.1,298.8 C324.6,298.6 323.7,298 323.2,297.6 323.2,297.6 322.2,296.8 322.2,296.8 322.2,296.8 322.2,271.1 322.2,271.1 322.2,271.1 322.2,245.5 322.2,245.5 322.2,245.5 322.9,244.6 322.9,244.6 323.2,244.1 323.5,243.6 323.5,243.4 323.5,243.2 323.7,243.1 323.8,243.1 324,243.1 324.1,242.9 324.1,242.7 324.1,242.1 326.6,239.7 327.2,239.7 327.5,239.7 327.8,239.5 327.9,239.4 328.2,238.9 329.7,239.1 330.8,239.7 332.3,240.5 332.6,240.8 333.1,241.9 333.5,242.8 333.6,245 333.6,266.9 333.6,296.4 333.7,295.2 329.8,297.8 327.7,299.2 326.4,299.5 325.1,298.8 Z " />
</g>

</svg>
